HIERARCHY
ROOT pelvis
{
    OFFSET 0.0 76.69164276123047 0.0
    CHANNELS 6 Xposition Yposition Zposition Zrotation Yrotation Xrotation

    JOINT left_hip
    {
        OFFSET -5.421833038330078 -4.185707092285156 3.364569664001465
        CHANNELS 3 Zrotation Yrotation Xrotation

        JOINT left_knee
        {
            OFFSET -2.380466938018799 -31.14776611328125 -27.844646453857422
            CHANNELS 3 Zrotation Yrotation Xrotation

            JOINT left_ankle
            {
                OFFSET 6.1509833335876465 -31.527803421020508 29.145278930664062
                CHANNELS 3 Zrotation Yrotation Xrotation

                JOINT left_foot
                {
                    OFFSET -6.790370941162109 -7.004793167114258 -9.95383071899414
                    CHANNELS 3 Zrotation Yrotation Xrotation

                    End Site
                    {
                        OFFSET 0 0 0
                    }
                }
            }
        }
    }

    JOINT right_hip
    {
        OFFSET 5.547305583953857 -4.575019836425781 3.5620148181915283
        CHANNELS 3 Zrotation Yrotation Xrotation

        JOINT right_knee
        {
            OFFSET 1.1084203720092773 -31.53653335571289 -26.790159225463867
            CHANNELS 3 Zrotation Yrotation Xrotation

            JOINT right_ankle
            {
                OFFSET -5.306102752685547 -31.07025909423828 26.73628044128418
                CHANNELS 3 Zrotation Yrotation Xrotation

                JOINT right_foot
                {
                    OFFSET 3.574263095855713 -6.979544639587402 -11.486910820007324
                    CHANNELS 3 Zrotation Yrotation Xrotation

                    End Site
                    {
                        OFFSET 0 0 0
                    }
                }
            }
        }
    }

    JOINT spine1
    {
        OFFSET 0.4744133949279785 17.56793212890625 1.269256830215454
        CHANNELS 3 Zrotation Yrotation Xrotation

        JOINT spine2
        {
            OFFSET 0.42104220390319824 5.537109375 -13.447051048278809
            CHANNELS 3 Zrotation Yrotation Xrotation

            JOINT spine3
            {
                OFFSET -0.10390305519104004 2.62225341796875 -3.692037582397461
                CHANNELS 3 Zrotation Yrotation Xrotation

                JOINT left_collar
                {
                    OFFSET -7.577725410461426 6.772911071777344 -7.819415092468262
                    CHANNELS 3 Zrotation Yrotation Xrotation

                    JOINT left_shoulder
                    {
                        OFFSET -12.497953414916992 -2.347503662109375 -0.7221851348876953
                        CHANNELS 3 Zrotation Yrotation Xrotation

                        JOINT left_elbow
                        {
                            OFFSET -0.7221431732177734 -17.521087646484375 18.52187728881836
                            CHANNELS 3 Zrotation Yrotation Xrotation

                            JOINT left_wrist
                            {
                                OFFSET -6.397699356079102 -26.071975708007812 7.725815296173096
                                CHANNELS 3 Zrotation Yrotation Xrotation

                                End Site
                                {
                                    OFFSET 0 0 0
                                }
                            }
                        }
                    }
                }

                JOINT right_collar
                {
                    OFFSET 8.140752792358398 7.027488708496094 -7.834973335266113
                    CHANNELS 3 Zrotation Yrotation Xrotation

                    JOINT right_shoulder
                    {
                        OFFSET 11.781332969665527 -0.9870376586914062 -0.6938762664794922
                        CHANNELS 3 Zrotation Yrotation Xrotation

                        JOINT right_elbow
                        {
                            OFFSET -0.8581695556640625 -16.327186584472656 20.467212677001953
                            CHANNELS 3 Zrotation Yrotation Xrotation

                            JOINT right_wrist
                            {
                                OFFSET -0.18008995056152344 -27.562278747558594 3.336151599884033
                                CHANNELS 3 Zrotation Yrotation Xrotation

                                End Site
                                {
                                    OFFSET 0 0 0
                                }
                            }
                        }
                    }
                }

                JOINT neck
                {
                    OFFSET 0.16351783275604248 16.04241943359375 -14.858990669250488
                    CHANNELS 3 Zrotation Yrotation Xrotation

                    JOINT head
                    {
                        OFFSET -1.150316596031189 11.211280822753906 -5.205087661743164
                        CHANNELS 3 Zrotation Yrotation Xrotation

                        End Site
                        {
                            OFFSET 0 0 0
                        }
                    }
                }
            }
        }
    }

}

MOTION
Frames: 16
Frame Time: 0.050000
-16.775606 97.195305 -27.794245 0.000000 0.000000 -0.000000 -24.053778 -30.821900 -29.243106 -11.097262 -39.175012 59.060178 78.310927 27.482631 -124.522334 0.000000 0.000000 -0.000000 26.115395 26.277882 -41.551738 9.527755 31.715772 53.608445 -52.972489 -48.024945 -97.545688 0.000000 0.000000 -0.000000 0.382911 0.909168 64.607606 0.967708 1.632774 -18.518257 0.000000 0.000000 -0.000000 -34.068305 -3.737339 38.158959 -34.993424 -11.895749 131.105099 -7.520821 61.974545 -27.666866 0.000000 0.000000 -0.000000 39.573480 10.508215 42.835204 32.741021 20.836805 127.857143 44.522966 -60.975087 -7.228324 0.000000 0.000000 -0.000000 -5.267609 6.258693 8.719224 0.000000 0.000000 -0.000000
-17.132906 90.253258 -27.076956 0.000000 0.000000 -0.000000 -17.962494 -25.763609 -23.269865 -26.240364 -44.471545 42.659891 71.155146 38.657579 -116.310055 0.000000 0.000000 -0.000000 19.785634 23.541229 -31.693753 23.107976 35.600303 32.685895 -29.415574 -55.191393 -72.219725 0.000000 0.000000 -0.000000 -0.378598 1.718055 58.090648 0.843969 1.535412 -20.819942 0.000000 0.000000 -0.000000 -38.018765 -4.688572 42.795055 -37.016702 -20.761698 120.148939 -5.729353 51.673129 -24.066059 0.000000 0.000000 -0.000000 38.815148 7.083145 42.072177 29.459004 31.528259 123.699955 43.581014 -55.027313 -3.938045 0.000000 0.000000 -0.000000 -5.787652 7.388000 6.839350 0.000000 0.000000 -0.000000
-17.773611 90.649467 -27.348644 0.000000 0.000000 -0.000000 -17.289483 -24.777990 -23.499852 -32.065110 -47.223164 41.486367 66.953744 41.214205 -114.345609 0.000000 0.000000 -0.000000 18.308645 22.702421 -29.323988 22.813685 34.061537 27.661625 -10.297611 -51.013096 -53.411643 0.000000 0.000000 -0.000000 -0.520596 1.911038 52.203790 0.469812 1.840696 -13.422045 0.000000 0.000000 -0.000000 -38.394703 -8.620685 42.812545 -39.291400 -27.226715 101.679709 -4.488258 50.789034 -23.810980 0.000000 0.000000 -0.000000 39.343048 9.552944 42.600531 35.568201 45.188578 101.270540 39.945546 -60.934188 -12.145702 0.000000 0.000000 -0.000000 -5.361453 5.706227 12.023714 0.000000 0.000000 -0.000000
-18.984255 97.566963 -28.600279 0.000000 0.000000 -0.000000 -22.829361 -27.740262 -33.030400 -11.970012 -38.808069 62.628087 61.364564 36.126268 -108.743726 0.000000 0.000000 -0.000000 21.594443 22.755429 -39.102434 7.317226 28.658779 48.646731 -18.730468 -42.311699 -63.642071 0.000000 0.000000 -0.000000 0.352678 0.790061 53.800967 -1.277374 3.861453 -9.309387 0.000000 0.000000 -0.000000 -35.905877 -10.719130 39.500131 -40.748566 -31.720282 81.202488 -1.541253 58.870268 -25.984816 0.000000 0.000000 -0.000000 37.334799 10.743518 40.303546 50.290834 56.050979 69.206291 33.020168 -67.575065 -17.480451 0.000000 0.000000 -0.000000 -4.890657 4.574004 14.977347 0.000000 0.000000 -0.000000
-20.359550 104.815422 -29.125578 0.000000 0.000000 -0.000000 -24.796330 -27.507868 -38.742947 0.648703 -28.289449 71.241942 50.708532 26.532758 -97.133193 0.000000 0.000000 -0.000000 22.371280 21.774489 -44.026566 -3.945379 20.777881 62.677285 -21.224447 -29.605597 -69.804112 0.000000 0.000000 -0.000000 1.490091 -0.760561 51.486624 -1.942819 4.451680 -7.593096 0.000000 0.000000 -0.000000 -34.027848 -9.455988 37.376991 -45.039021 -37.343960 63.182659 10.104197 65.021027 -36.319743 0.000000 0.000000 -0.000000 35.043388 10.127717 37.744523 67.008745 56.743826 39.230457 23.210927 -68.094619 -20.859514 0.000000 0.000000 -0.000000 -3.402379 2.851000 14.539525 0.000000 0.000000 -0.000000
-21.597048 109.918892 -29.138008 0.000000 0.000000 -0.000000 -22.933024 -24.638255 -41.347293 7.023054 -21.652373 73.811325 41.665020 20.492357 -86.020604 0.000000 0.000000 -0.000000 19.786942 19.130581 -44.794441 -8.595686 16.111073 66.989231 -20.237252 -22.645859 -69.013193 0.000000 0.000000 -0.000000 1.786706 -1.350194 47.840077 -1.279999 3.648747 -7.580935 0.000000 0.000000 -0.000000 -32.453025 -7.415760 35.750896 -51.808713 -40.992653 46.282017 20.956944 69.977522 -44.082866 0.000000 0.000000 -0.000000 33.077656 8.963099 35.582896 75.482174 51.830879 20.008645 17.756876 -66.853777 -19.415859 0.000000 0.000000 -0.000000 -2.487249 1.894690 13.371008 0.000000 0.000000 -0.000000
-22.668005 113.791702 -28.904915 0.000000 0.000000 -0.000000 -18.642153 -20.022714 -42.662555 11.613714 -16.679492 74.947887 35.219378 13.821473 -76.624341 0.000000 0.000000 -0.000000 14.954420 14.873679 -43.943767 -11.392043 12.693059 69.168955 -20.111393 -17.748713 -67.142256 0.000000 0.000000 -0.000000 1.513261 -1.193353 43.329205 -0.522814 2.806324 -9.124388 0.000000 0.000000 -0.000000 -30.356278 -5.476720 33.507267 -59.433788 -41.369986 28.345968 31.822193 73.701443 -49.428018 0.000000 0.000000 -0.000000 31.284494 8.148424 33.610826 77.165447 43.227020 5.019802 8.254850 -65.059593 -20.440142 0.000000 0.000000 -0.000000 -1.644605 1.036958 11.769161 0.000000 0.000000 -0.000000
-23.506809 115.763626 -28.429811 0.000000 0.000000 -0.000000 -12.224878 -13.741622 -42.948608 13.777674 -14.073128 75.144213 32.091880 7.126417 -70.758801 0.000000 0.000000 -0.000000 9.260733 9.772073 -42.361759 -12.925775 10.348048 70.236258 -21.114063 -13.962012 -65.905732 0.000000 0.000000 -0.000000 1.014038 -0.616889 38.693700 -0.290337 2.633017 -11.200997 0.000000 0.000000 -0.000000 -25.846025 -4.187435 28.361787 -61.817016 -36.483702 12.810602 32.302910 72.744931 -39.242817 0.000000 0.000000 -0.000000 27.783879 8.660598 29.679451 67.478471 30.941988 -6.350569 10.745193 -57.769157 -5.773408 0.000000 0.000000 -0.000000 -0.911264 0.386510 9.009235 0.000000 0.000000 -0.000000
-23.960087 114.145866 -27.532328 0.000000 0.000000 -0.000000 -5.981413 -7.794975 -41.424305 12.602279 -14.192904 71.711046 29.603319 3.755568 -65.199630 0.000000 0.000000 -0.000000 4.800767 5.625096 -40.275123 -13.210277 9.239902 66.688199 -20.288910 -11.030411 -61.275937 0.000000 0.000000 -0.000000 0.280710 0.532925 34.433114 0.090975 1.999057 -11.945097 0.000000 0.000000 -0.000000 -17.896211 -1.637976 19.561315 -53.419422 -25.597977 3.645356 17.906868 57.843517 -11.391516 0.000000 0.000000 -0.000000 21.019258 9.386857 22.113594 43.256269 18.424726 -9.638341 13.436547 -32.848976 5.870808 0.000000 0.000000 -0.000000 -0.875032 0.633264 6.236561 0.000000 0.000000 -0.000000
-23.997208 104.136482 -25.940170 0.000000 0.000000 -0.000000 -0.191162 -1.773548 -32.638240 6.346922 -13.892251 52.900013 21.703655 4.410330 -47.527776 0.000000 0.000000 -0.000000 1.786384 2.764502 -32.691333 -13.168598 6.666130 51.190932 -12.162561 -0.430333 -42.975337 0.000000 0.000000 -0.000000 -1.197005 3.667612 24.350552 1.024090 -0.070595 -8.609042 0.000000 0.000000 -0.000000 -2.631856 2.149867 3.235729 -25.684700 -9.317430 6.355821 6.361579 17.414682 1.797439 0.000000 0.000000 -0.000000 6.307656 8.824349 6.006884 2.263199 6.805818 -1.767053 15.742526 8.085400 -0.429667 0.000000 0.000000 -0.000000 -2.369611 3.284599 2.648750 0.000000 0.000000 -0.000000
-23.692732 95.157356 -22.964069 0.000000 0.000000 -0.000000 1.352916 0.678800 -22.839074 -0.825375 -11.216284 31.935927 10.947926 7.137440 -26.732537 0.000000 0.000000 -0.000000 1.086008 2.049278 -22.619857 -13.547285 2.926047 33.280322 -7.726917 8.089538 -25.163752 0.000000 0.000000 -0.000000 -1.465090 5.098820 14.141800 1.121991 -0.641615 -5.202845 0.000000 0.000000 -0.000000 2.800041 3.010886 -2.443185 -8.176301 -1.482312 6.674607 -1.105152 -1.389067 -3.759914 0.000000 0.000000 -0.000000 0.159572 8.665688 -0.619716 -22.524451 0.504396 1.106893 23.664814 23.828385 -14.020355 0.000000 0.000000 -0.000000 -2.723371 4.166196 0.669448 0.000000 0.000000 -0.000000
-23.407320 80.947021 -19.805359 0.000000 0.000000 -0.000000 1.396456 2.041373 -8.429774 -7.288738 -4.414347 5.773623 -3.814658 5.564523 -1.774699 0.000000 0.000000 -0.000000 1.394340 2.800827 -7.094785 -15.265674 -2.672974 5.009014 -5.373685 15.251585 0.859608 0.000000 0.000000 -0.000000 -1.220084 5.005858 7.417326 0.865073 -0.599943 -4.788424 0.000000 0.000000 -0.000000 0.661691 1.843564 -0.370113 -0.468444 1.536580 4.139274 -1.465811 -3.278246 -3.724458 0.000000 0.000000 -0.000000 -1.122222 6.726933 -1.803681 -21.415832 -0.865208 5.376536 10.954296 17.428616 -8.345291 0.000000 0.000000 -0.000000 -2.969372 5.140726 -2.325070 0.000000 0.000000 -0.000000
-23.406387 78.578064 -18.830259 0.000000 0.000000 -0.000000 1.081730 1.741002 -5.672855 -8.195308 -3.548762 1.809284 -5.267265 5.161767 -1.222711 0.000000 0.000000 -0.000000 1.481265 3.033634 -4.766476 -16.059640 -3.587874 0.492172 -4.895263 18.011712 3.991502 0.000000 0.000000 -0.000000 -1.177356 4.742712 8.367322 0.712313 -0.175013 -5.262693 0.000000 0.000000 -0.000000 -0.523277 2.368126 0.997834 -8.172099 -1.058433 6.625954 -1.526796 -1.615604 -3.987482 0.000000 0.000000 -0.000000 -0.388097 4.814481 -0.837478 -8.356664 1.907233 7.580435 9.049092 11.116368 -5.663803 0.000000 0.000000 -0.000000 -3.196788 5.281801 -1.207745 0.000000 0.000000 -0.000000
-23.642250 80.034676 -19.495674 0.000000 0.000000 -0.000000 1.016174 1.492587 -6.825676 -7.527405 -3.748041 2.291104 -3.251116 5.658185 -6.123195 0.000000 0.000000 -0.000000 0.569126 1.264841 -5.475957 -13.688258 -3.636837 2.016349 -3.599591 19.256938 -1.336178 0.000000 0.000000 -0.000000 -0.939598 3.652769 11.679310 0.211675 1.195366 -5.647220 0.000000 0.000000 -0.000000 -0.901317 1.767781 1.296947 -15.972678 -5.887531 11.618771 -4.193479 -0.831345 -0.368954 0.000000 0.000000 -0.000000 1.322406 4.130535 1.054843 6.710738 7.103659 9.727328 9.205282 3.971181 -3.919794 0.000000 0.000000 -0.000000 -2.671254 3.643694 3.197357 0.000000 0.000000 -0.000000
-24.200375 86.556473 -22.308231 0.000000 0.000000 -0.000000 0.241617 -0.467407 -14.445169 -3.207825 -7.318107 13.149150 2.808633 6.483873 -16.141829 0.000000 0.000000 -0.000000 -0.106520 0.186950 -12.765857 -11.759943 -0.933850 13.362391 -3.013026 17.584469 -13.582670 0.000000 0.000000 -0.000000 -0.729309 2.741122 18.257687 0.147748 1.471838 -6.163355 0.000000 0.000000 -0.000000 -3.085954 0.174457 3.372132 -24.233604 -11.812043 14.166952 -3.793244 6.443512 3.907946 0.000000 0.000000 -0.000000 3.999618 5.012527 3.851769 17.452724 12.715896 13.199642 8.924413 -2.809196 -4.721567 0.000000 0.000000 -0.000000 -2.841887 3.091868 8.126353 0.000000 0.000000 -0.000000
-24.949673 96.388496 -26.143242 0.000000 0.000000 -0.000000 -2.520358 -4.554422 -30.400927 5.198155 -13.468834 39.673843 15.432684 12.259801 -35.179333 0.000000 0.000000 -0.000000 1.273030 2.229714 -28.328294 -15.585058 3.488081 36.621596 -9.735824 5.036634 -35.302278 0.000000 0.000000 -0.000000 -0.187340 1.383466 31.826179 -0.326825 2.700416 -10.710110 0.000000 0.000000 -0.000000 -5.950158 -4.692803 5.584326 -29.165983 -18.851735 16.484312 -0.181512 18.078741 3.494095 0.000000 0.000000 -0.000000 6.150434 8.814461 5.837097 19.282454 17.432919 17.719716 10.860984 -4.304597 -4.185218 0.000000 0.000000 -0.000000 -3.845270 4.283133 9.086031 0.000000 0.000000 -0.000000
